<?xml version="1.0" encoding="UTF-8"?>
<svg version="1.1" xmlns="http://www.w3.org/2000/svg" width="1024" height="1024">
<path d="M0 0 C1.70410502 0.78726605 3.40919809 1.57239664 5.11523438 2.35546875 C8.53669847 3.92854592 11.95336026 5.51135231 15.36621094 7.10302734 C21.75428897 10.0773259 28.18849697 12.94465057 34.625 15.8125 C36.91667867 16.84502544 39.20834502 17.87757822 41.5 18.91015625 C46.50519428 21.15640628 51.52620902 23.36166621 56.55993652 25.54318237 C60.05696628 27.06095827 63.54856577 28.59100693 67.03979492 30.12207031 C68.74707643 30.86696035 70.45684669 31.60617502 72.16918945 32.33935547 C74.56729534 33.36674433 76.95599807 34.41365927 79.34375 35.46484375 C80.41363159 35.91421547 80.41363159 35.91421547 81.50512695 36.37266541 C86.94608041 38.80377771 90.40237174 41.86724348 93.125 47.3125 C95.37206587 47.80412613 95.37206587 47.80412613 98.17700195 47.99707031 C99.31566208 48.10138367 100.4543222 48.20569702 101.62748718 48.31317139 C102.92217422 48.42123108 104.21686127 48.52929077 105.55078125 48.640625 C106.9531204 48.76400513 108.35540632 48.88799146 109.75764465 49.01251221 C113.91340171 49.37738016 118.07037163 49.72644444 122.22779083 50.07180786 C125.30658557 50.32758563 128.38519799 50.5854926 131.46380615 50.84350586 C146.15458012 52.07166803 160.8481668 53.26313006 175.54321289 54.43896484 C182.08673735 54.96289674 188.62953473 55.49542436 195.17222118 56.02970505 C200.24780285 56.44266471 205.32386408 56.84946966 210.40007973 57.25455475 C212.81600822 57.44841869 215.23175221 57.64459683 217.64729881 57.84316254 C220.99509379 58.11779101 224.34347151 58.38371198 227.69213867 58.64746094 C228.68052231 58.73049973 229.66890594 58.81353851 230.6872406 58.89909363 C231.59866821 58.96911087 232.51009583 59.03912811 233.44914246 59.11126709 C234.23627215 59.17466152 235.02340185 59.23805595 235.83438396 59.30337143 C241.44210289 59.32571933 245.10361831 57.31351403 249.62890625 54.21875 C250.25631714 53.79975937 250.88372803 53.38076874 251.53015137 52.94908142 C252.88186747 52.04626307 254.23146259 51.14026261 255.57913208 50.23141479 C259.16241059 47.81989693 262.76925084 45.44413992 266.375 43.06640625 C267.1072731 42.58309341 267.8395462 42.09978058 268.5940094 41.6018219 C275.16379913 37.27243299 281.75779146 32.9867907 288.44332886 28.83789062 C290.12832899 27.78690669 291.8008851 26.71605238 293.47290039 25.64453125 C304.89333274 18.61818789 317.21329989 16.19882126 330.3125 14.125 C331.28896484 13.96064453 332.26542969 13.79628906 333.27148438 13.62695312 C367.68003988 8.01710942 400.72578281 11.05367019 432.125 26.3125 C432.80127441 26.63621582 433.47754883 26.95993164 434.17431641 27.29345703 C442.03307342 31.06466344 449.73387527 35.11923919 457.375 39.3125 C458.07109375 39.69132324 458.7671875 40.07014648 459.484375 40.46044922 C460.1753125 40.84475098 460.86625 41.22905273 461.578125 41.625 C462.26414795 42.00626038 462.9501709 42.38752075 463.65698242 42.78033447 C466.125 44.3125 466.125 44.3125 468.58813477 46.33126831 C477.44712666 53.3064731 484.74575041 53.1140218 495.359375 52.1328125 C497.0076371 52.00819675 498.65610296 51.88625063 500.30474854 51.76681519 C503.74690419 51.50724317 507.184493 51.21615845 510.62207031 50.90185547 C514.97995845 50.50586805 519.33928093 50.18855893 523.70513535 49.8952198 C527.10911479 49.65759841 530.50867284 49.37771572 533.90839386 49.08587265 C535.51298983 48.95293426 537.1186664 48.83232407 538.7252121 48.7254982 C550.71082515 47.89420809 558.80991619 44.44684244 568.55491829 37.43680286 C570.49856738 36.04499617 572.50229426 34.76181916 574.52734375 33.4921875 C575.70646019 32.72508081 576.88485225 31.95685949 578.0625 31.1875 C588.26402225 24.55771925 598.51908125 18.01198364 608.77001953 11.45898438 C612.25327797 9.23042899 615.73432048 6.99844793 619.21484375 4.765625 C620.93948588 3.65978539 622.66418782 2.55403912 624.38891602 1.44833374 C626.03638904 0.39174596 627.6832387 -0.6658136 629.33007812 -1.72338867 C630.32330078 -2.35994385 631.31652344 -2.99649902 632.33984375 -3.65234375 C633.65650024 -4.49720337 633.65650024 -4.49720337 634.99975586 -5.35913086 C640.12264955 -8.56116011 645.19727478 -8.23909697 651.125 -7.6875 C658.18633335 -4.34941514 662.19489512 1.94051578 665.56323242 8.75073242 C666.02303497 9.6718708 666.02303497 9.6718708 666.49212646 10.61161804 C667.49578103 12.62675557 668.48804991 14.64727762 669.48046875 16.66796875 C670.18846608 18.09399439 670.89724693 19.51963127 671.60676575 20.94490051 C673.4724803 24.69720717 675.32891238 28.45402629 677.1829834 32.21209717 C680.12223553 38.16572659 683.07530973 44.11252681 686.0278511 50.05957413 C686.74766108 51.50965395 687.46713971 52.95989829 688.18629074 54.41030502 C692.51190642 63.13213849 696.9017373 71.80746262 701.48405457 80.397995 C708.04802898 92.74541948 714.16013852 105.33073037 720.38427734 117.8515625 C728.57345547 134.34625827 728.57345547 134.34625827 737.0625 150.6875 C741.19641725 158.45946892 745.16495759 166.31036347 749.09375 174.1875 C749.39920242 174.79984497 749.70465485 175.41218994 750.0193634 176.04309082 C752.54242834 181.10322047 755.06024716 186.16595672 757.57794189 191.22875977 C764.51549408 205.17771049 771.4708684 219.1081912 778.77490234 232.87011719 C782.57581119 240.03542878 786.27890784 247.25028556 789.94213867 254.48681641 C790.78292218 256.14135177 791.62942364 257.79299211 792.48120117 259.44189453 C793.74198677 261.88426407 794.98405378 264.33538379 796.22265625 266.7890625 C796.60172623 267.51421051 796.9807962 268.23935852 797.37135315 268.98648071 C800.47382998 275.21549327 802.23109335 281.66464182 800.125 288.5 C796.91327293 295.82690218 789.61357665 299.42110795 782.67578125 302.59765625 C781.87403976 302.9755278 781.07229828 303.35339935 780.2462616 303.74272156 C777.64815719 304.96408316 775.04306651 306.16965119 772.4375 307.375 C770.62064986 308.22528914 768.80424729 309.07653526 766.98828125 309.92871094 C762.51126522 312.02640921 758.02851461 314.1114599 753.54302979 316.190979 C750.74966267 317.48658747 747.95848051 318.78683796 745.1676178 320.08782959 C740.13436489 322.43400432 735.09625113 324.76940174 730.0546875 327.09765625 C724.86163323 329.49965282 719.68229947 331.92946654 714.5078125 334.37109375 C713.03581334 335.06479147 711.56380816 335.75847643 710.09179688 336.45214844 C707.94281183 337.46500842 705.79438111 338.47895879 703.64770508 339.4967041 C701.67537418 340.43175336 699.70115277 341.36270241 697.7265625 342.29296875 C696.03007568 343.09577271 696.03007568 343.09577271 694.29931641 343.91479492 C686.97440479 347.14007711 679.89244833 349.01004878 671.98828125 346.68359375 C664.75228222 342.94083563 660.48334152 334.91252948 656.125 328.3125 C650.17459001 332.22717465 644.32752424 336.25501879 638.5625 340.4375 C637.79744141 340.99010498 637.03238281 341.54270996 636.24414062 342.11206055 C632.29044009 344.97767992 628.36386531 347.87423148 624.47265625 350.82421875 C623.74054932 351.37899902 623.00844238 351.9337793 622.25415039 352.50537109 C620.85789195 353.56749453 619.46501637 354.63408304 618.07592773 355.70556641 C613.34236286 359.3125 613.34236286 359.3125 611.125 359.3125 C611.64900391 360.74142578 611.64900391 360.74142578 612.18359375 362.19921875 C612.64341666 363.46607779 613.10304162 364.7330087 613.5625 366 C613.79259766 366.62583984 614.02269531 367.25167969 614.25976562 367.89648438 C618.4835398 379.588381 618.9537624 393.01020277 614.375 404.6796875 C607.96257121 418.18586564 596.69146147 428.96074976 582.625 434.1875 C575.06442315 436.26605087 566.89013693 435.54088638 559.125 435.3125 C559.14385254 435.899104 559.16270508 436.48570801 559.18212891 437.09008789 C559.43411739 450.60193211 552.50092258 462.41749761 543.4453125 472.14453125 C531.31649543 483.47701185 518.37560432 487.31419634 502.14453125 486.78515625 C494.96200598 486.3021008 488.77594669 483.93540855 482.125 481.3125 C481.465 481.3125 480.805 481.3125 480.125 481.3125 C479.81369141 482.23869141 479.81369141 482.23869141 479.49609375 483.18359375 C474.39498607 497.20630398 464.3936055 506.64561549 451.1171875 513.0859375 C435.78446877 519.37115118 419.17043845 517.36820369 404.125 511.3125 C403.51962402 511.00207764 402.91424805 510.69165527 402.29052734 510.37182617 C400.26277204 509.30768924 400.26277204 509.30768924 397.125 508.3125 C394.59373516 509.24466735 394.59373516 509.24466735 392.5 511.25 C376.80152787 523.49956538 356.51318635 526.98195945 337.01953125 525.11035156 C322.76407189 523.33844878 309.03377896 519.37543636 296.70825195 511.96191406 C289.62161092 507.34881861 289.62161092 507.34881861 281.61328125 507.125 C278.57320713 508.99341944 275.88912418 511.06117714 273.125 513.3125 C263.6581107 518.25174659 250.0150001 517.66159093 239.7734375 515.65625 C237.05138297 514.74628364 234.65171306 513.67086094 232.125 512.3125 C231.20589844 511.838125 230.28679687 511.36375 229.33984375 510.875 C220.14684988 505.61463487 213.46203952 497.97596619 209.125 488.3125 C209.125 487.6525 209.125 486.9925 209.125 486.3125 C207.82755859 486.55226563 207.82755859 486.55226563 206.50390625 486.796875 C191.5090445 489.08510824 177.02720037 486.12771923 164.53125 477.52734375 C155.07347764 470.36279631 149.46883218 461.7848451 144.125 451.3125 C142.90425781 451.35890625 141.68351562 451.4053125 140.42578125 451.453125 C122.92495629 451.92202445 109.75045641 448.29976779 96.4375 436.375 C90.16786213 429.85683595 85.96700664 420.83851993 83.125 412.3125 C82.01125 412.35375 80.8975 412.395 79.75 412.4375 C66.30942804 412.39017404 54.83230983 407.49685711 45.125 398.3125 C34.68410682 387.22159012 31.125 374.25329096 31.125 359.3125 C30.44099121 358.93029297 29.75698242 358.54808594 29.05224609 358.15429688 C3.93111778 344.11316176 3.93111778 344.11316176 -7.875 337.3125 C-8.143125 337.91707031 -8.41125 338.52164062 -8.6875 339.14453125 C-10.72050092 342.85609544 -14.09631245 345.42315622 -17.875 347.3125 C-27.80461189 348.67166094 -36.96230156 345.28150771 -46.28125 342.34375 C-47.97162059 341.82344535 -49.66242659 341.3045534 -51.3536377 340.7869873 C-55.79931407 339.4225601 -60.23916629 338.04008562 -64.67791748 336.65332031 C-69.97295524 335.00258279 -75.27454897 333.37306109 -80.57521057 331.74049377 C-84.87020208 330.41706736 -89.16382527 329.08956673 -93.4543457 327.75170898 C-101.0068105 325.40033627 -108.5611754 323.08597914 -116.1796875 320.95703125 C-117.42496216 320.6050769 -118.67023682 320.25312256 -119.95324707 319.89050293 C-122.20487168 319.26010433 -124.46072591 318.64451012 -126.72155762 318.04797363 C-134.4413317 315.87995143 -139.61553525 312.98413022 -143.875 306.0625 C-146.13109231 297.60215383 -143.29303721 289.66815185 -140.32421875 281.7109375 C-139.95859329 280.70181305 -139.59296783 279.6926886 -139.21626282 278.65298462 C-138.00879793 275.32724417 -136.78551446 272.00755009 -135.5625 268.6875 C-134.70249728 266.32598613 -133.84379841 263.96399708 -132.98632812 261.6015625 C-131.41861811 257.2840311 -129.84813579 252.96754097 -128.2733326 248.65259171 C-124.16359058 237.38781311 -120.13838125 226.09317605 -116.11611938 214.79693604 C-114.02864315 208.93635768 -111.93621444 203.07754886 -109.84375 197.21875 C-109.4302681 196.06085968 -109.01678619 194.90296936 -108.59077454 193.70999146 C-103.80537564 180.31251407 -99.001434 166.92169243 -94.19775391 153.53076172 C-88.07555955 136.46321036 -81.9706754 119.3895393 -75.875 102.3125 C-69.5226032 84.51842106 -63.16601259 66.72585415 -56.79418945 48.9387207 C-55.98855062 46.68947928 -55.18320029 44.4401345 -54.37817383 42.19067383 C-52.21837381 36.15616781 -50.05130709 30.12436869 -47.87542725 24.09564209 C-46.88236983 21.33300253 -45.90082262 18.56646477 -44.92041016 15.79931641 C-44.30796918 14.0913451 -43.69519448 12.3834934 -43.08203125 10.67578125 C-42.815009 9.91259079 -42.54798676 9.14940033 -42.27287292 8.36308289 C-39.972489 2.00806511 -37.31319969 -3.83828628 -30.94165039 -6.98706055 C-19.8553942 -10.74446976 -9.78855749 -4.63122882 0 0 Z M-13.875 33.3125 C-28.97672163 74.96429411 -43.83216894 116.70424899 -58.63347244 158.46356583 C-65.30304113 177.28033606 -72.00569248 196.08485407 -78.75 214.875 C-79.52398565 217.03261199 -80.29791207 219.19024522 -81.07177734 221.34790039 C-81.83300764 223.47021491 -82.5942381 225.59252936 -83.35546875 227.71484375 C-83.9131897 229.26979301 -83.9131897 229.26979301 -84.48217773 230.8561554 C-86.40293184 236.21074735 -88.3248376 241.56492179 -90.24853516 246.91845703 C-92.16511838 252.25339474 -94.07683731 257.5900532 -95.98516846 262.927948 C-96.69711363 264.91678425 -97.41074735 266.90501694 -98.12615967 268.89260864 C-99.10280203 271.60655142 -100.07360881 274.32251172 -101.04296875 277.0390625 C-101.47734001 278.23959007 -101.47734001 278.23959007 -101.92048645 279.46437073 C-103.01106872 282.53653856 -103.875 285.02659149 -103.875 288.3125 C-96.51482964 290.50184996 -89.15390217 292.68864057 -81.79248047 294.8737793 C-79.29621794 295.61507317 -76.80011967 296.35692041 -74.30419922 297.09936523 C-60.19459385 301.29602483 -46.08050941 305.45120778 -31.875 309.3125 C8.45539742 243.30912942 58.04757883 144.30372655 57.125 64.3125 C54.54819605 63.15230161 51.97137221 61.99214743 49.39453125 60.83203125 C48.5842598 60.4672316 47.77398834 60.10243195 46.93916321 59.72657776 C42.44860853 57.70501882 37.95773308 55.68417655 33.46630859 53.66455078 C31.62727529 52.83757256 29.78824535 52.01058687 27.94921875 51.18359375 C27.03148682 50.77091248 26.11375488 50.3582312 25.16821289 49.93304443 C20.1789942 47.68878103 15.19180354 45.44014031 10.20774841 43.18443298 C7.51278489 41.9651018 4.81661226 40.74846103 2.12020874 39.53231812 C0.87581138 38.970194 -0.36798715 38.4067423 -1.61117554 37.84194946 C-3.31999634 37.06576472 -5.03102977 36.29445662 -6.7421875 35.5234375 C-7.69206543 35.09337402 -8.64194336 34.66331055 -9.62060547 34.22021484 C-11.7791637 33.18799907 -11.7791637 33.18799907 -13.875 33.3125 Z M629.0625 39.8125 C627.52269107 40.82246226 625.98228899 41.83152055 624.44140625 42.83984375 C623.59594238 43.39397949 622.75047852 43.94811523 621.87939453 44.51904297 C616.77676262 47.84149767 611.63456721 51.10221512 606.5 54.375 C597.30195623 60.24798148 588.16432589 66.19809419 579.125 72.3125 C580.5086366 81.42914115 582.93436311 90.1800155 585.5625 99 C585.88954926 100.10390076 585.88954926 100.10390076 586.22320557 101.23010254 C596.93851494 137.3026868 610.40238331 172.11911176 626.125 206.3125 C626.5876123 207.31893555 627.05022461 208.32537109 627.52685547 209.36230469 C634.14813417 223.67667717 641.40926428 237.5606445 649.125 251.3125 C649.61081543 252.18616211 650.09663086 253.05982422 650.59716797 253.95996094 C660.82359943 272.3354198 671.91114679 290.18725608 684.125 307.3125 C688.43792307 306.75531482 691.81282004 305.7210114 695.703125 303.79296875 C697.30172363 303.01010498 697.30172363 303.01010498 698.93261719 302.21142578 C700.06860352 301.64665527 701.20458984 301.08188477 702.375 300.5 C704.8012117 299.31196786 707.22814177 298.12554339 709.65625 296.94140625 C710.27441589 296.63914124 710.89258179 296.33687622 711.52947998 296.02545166 C717.93407373 292.9009497 724.39824993 289.90922454 730.875 286.9375 C731.95152832 286.44306396 733.02805664 285.94862793 734.13720703 285.43920898 C736.19057113 284.4965065 738.24411061 283.55418589 740.29785156 282.61230469 C746.25347395 279.87415843 752.1895814 277.09411532 758.125 274.3125 C757.5352143 270.74598361 756.58753219 267.86612392 754.96704102 264.64013672 C754.51889542 263.74084442 754.07074982 262.84155212 753.60902405 261.91500854 C753.12058517 260.9504776 752.6321463 259.98594666 752.12890625 258.9921875 C751.36754616 257.47227707 751.36754616 257.47227707 750.59080505 255.92166138 C749.51166114 253.77009763 748.4296393 251.61997529 747.3449707 249.47119141 C745.71940408 246.25070664 744.10202433 243.02622723 742.48632812 239.80078125 C737.81361868 230.49097081 733.10179758 221.20714649 728.21484375 212.0078125 C721.28876988 198.95994089 714.78451421 185.69560124 708.20849609 172.46911621 C699.32973584 154.55756805 699.32973584 154.55756805 690.125 136.8125 C683.22066284 123.83405796 676.75265561 110.63152335 670.20849609 97.46911621 C662.98946875 82.95117095 655.73921447 68.45912258 648.10656738 54.152771 C646.79035524 51.6850983 645.48510452 49.21167777 644.1796875 46.73828125 C643.45337571 45.36705468 642.72683396 43.99594987 642 42.625 C641.61585938 41.89990234 641.23171875 41.17480469 640.8359375 40.42773438 C639.93252059 38.72253495 639.02880071 37.01749603 638.125 35.3125 C634.63290637 35.3125 631.90177626 37.92828882 629.0625 39.8125 Z M335.375 48.0625 C334.39611816 48.21936279 333.41723633 48.37622559 332.40869141 48.5378418 C321.99874444 50.40990833 312.90527323 53.99820978 303.9375 59.5625 C303.10307373 60.07192139 302.26864746 60.58134277 301.40893555 61.10620117 C294.32820826 65.47322396 287.36967538 70.02675159 280.4375 74.625 C279.44661377 75.28209961 278.45572754 75.93919922 277.43481445 76.61621094 C270.55085405 81.23387811 264.01683276 86.18004924 257.5625 91.375 C256.15258142 92.49570451 254.72547424 93.5966815 253.2578125 94.640625 C237.42110248 105.99524728 234.57543065 122.69925148 231.49804688 141.01464844 C231.18076498 142.96900527 230.87790242 144.92569423 230.578125 146.8828125 C229.32864881 154.78898081 226.58125856 158.93726853 220.8125 164.5 C213.04942517 172.12239308 206.76426203 181.42519863 205.96484375 192.5390625 C206.09866387 195.39746026 206.57839607 197.65657528 208.43359375 199.8828125 C214.77141005 205.41457236 222.1116964 204.84701848 230.03125 204.49169922 C245.32590653 203.18266495 258.27773452 193.49196683 267.8828125 182.11328125 C275.25441523 173.08342114 282.02947488 163.44772128 287.33203125 153.05078125 C294.15318079 139.76820002 294.15318079 139.76820002 301.1796875 137.125 C302.63761719 136.7228125 302.63761719 136.7228125 304.125 136.3125 C304.74922852 136.13332031 305.37345703 135.95414062 306.01660156 135.76953125 C325.79502426 130.16423409 349.49531752 127.3360804 368.33203125 137.4765625 C378.71746303 144.30334982 387.98793105 152.93685346 397.125 161.3125 C398.45452503 162.48350474 399.78772954 163.65034829 401.125 164.8125 C405.02290485 168.20744939 408.85847057 171.66915884 412.6953125 175.1328125 C414.7810618 177.00395094 416.88317628 178.85174831 419 180.6875 C422.96830549 184.14169304 426.83512559 187.70380558 430.70483398 191.26733398 C433.45938092 193.799607 436.23225075 196.30270203 439.0625 198.75 C443.194109 202.33187309 447.19429927 206.05087958 451.20458984 209.76708984 C455.30463479 213.56386652 459.44488173 217.31255551 463.60546875 221.04296875 C467.96191166 224.96714446 472.27513444 228.93852828 476.59277344 232.90527344 C479.10177112 235.20958552 481.61350468 237.51091091 484.125 239.8125 C485.12501352 240.72915192 486.12501351 241.6458186 487.125 242.5625 C487.62 243.01625 488.115 243.47 488.625 243.9375 C490.125 245.3125 491.625 246.6875 493.125 248.0625 C493.86737915 248.74300415 493.86737915 248.74300415 494.62475586 249.43725586 C495.62559668 250.35470685 496.62641045 251.27218736 497.62719727 252.18969727 C500.11411261 254.46960551 502.60148315 256.74901293 505.08984375 259.02734375 C511.90640292 265.26978246 518.70404083 271.53238842 525.49267578 277.80517578 C527.09695361 279.28660134 528.70254366 280.76658992 530.30859375 282.24609375 C539.25703561 290.49172808 548.15174971 298.79418144 557.04101562 307.10351562 C561.39908239 311.17668324 565.76043968 315.24629147 570.125 319.3125 C570.73746582 319.88371582 571.34993164 320.45493164 571.98095703 321.04345703 C573.7561688 322.69777116 575.53392668 324.34930128 577.3125 326 C578.10551514 326.73984131 578.10551514 326.73984131 578.91455078 327.49462891 C581.54749794 329.93260628 584.20297993 332.22733532 587.125 334.3125 C596.12197934 328.02267833 605.05617683 321.66287781 613.875 315.125 C621.19208074 309.70085832 628.58814198 304.42727977 636.125 299.3125 C634.76769331 295.6923384 633.14046558 292.44848434 631.17578125 289.12109375 C630.28608643 287.60237671 630.28608643 287.60237671 629.37841797 286.05297852 C628.73791504 284.96299561 628.09741211 283.8730127 627.4375 282.75 C591.71750494 221.43746381 564.94238941 156.27866793 546.81420898 87.7097168 C546.20794105 85.326163 546.20794105 85.326163 545.125 83.3125 C531.12941497 82.80771246 517.1843485 84.42213898 503.2565918 85.60351562 C467.0984062 88.65059741 467.0984062 88.65059741 457.125 81.3125 C454.72260687 79.6661146 452.2988082 78.05214333 449.875 76.4375 C449.22644043 76.00373047 448.57788086 75.56996094 447.90966797 75.12304688 C422.73591468 58.36136148 396.30140406 46.11234165 365.75 46 C365.07014038 45.99738159 364.39028076 45.99476318 363.68981934 45.99206543 C354.13025242 45.98814826 344.83314878 46.53888877 335.375 48.0625 Z M90.125 83.3125 C89.9297876 84.28558105 89.7345752 85.25866211 89.53344727 86.26123047 C74.36118671 161.53516373 48.08914318 231.39587429 13.33911133 299.91601562 C12.26066427 302.04471788 11.18994957 304.17702034 10.125 306.3125 C21.8621287 313.76929386 33.99450714 320.52203571 46.125 327.3125 C49.02246787 324.49781693 51.65093424 321.76718186 53.9375 318.4375 C61.11964565 308.75800928 70.85420889 302.79655209 82.7578125 300.59375 C96.27575898 298.98765735 108.84743392 301.50754769 120.125 309.3125 C125.00141789 313.49544847 128.96730952 317.69773162 132.125 323.3125 C133.02508789 323.10137573 133.02508789 323.10137573 133.94335938 322.88598633 C140.23693276 321.50546448 146.19119326 320.97624148 152.625 321 C153.93404297 320.97583008 153.93404297 320.97583008 155.26953125 320.95117188 C168.4672234 320.94139581 180.58303667 326.39840148 190.265625 335.30078125 C193.66762843 338.98152026 196.41696967 343.1065904 199.125 347.3125 C199.70507812 347.17972656 200.28515625 347.04695313 200.8828125 346.91015625 C201.66398438 346.73355469 202.44515625 346.55695313 203.25 346.375 C204.01570312 346.20097656 204.78140625 346.02695312 205.5703125 345.84765625 C220.06939925 342.81038578 235.35106773 343.58953425 248.5 351 C261.02561286 359.44163153 269.02096008 369.07554694 272.3125 383.9375 C272.44317871 384.63689697 272.57385742 385.33629395 272.70849609 386.05688477 C273.41583464 389.90180905 273.41583464 389.90180905 275.92578125 392.7265625 C278.3291573 393.3668936 280.65644685 393.75393086 283.125 394.0625 C294.66278054 396.07508223 302.97717853 402.19560005 311.125 410.3125 C311.71152344 410.89644531 312.29804688 411.48039062 312.90234375 412.08203125 C313.30582031 412.48808594 313.70929688 412.89414062 314.125 413.3125 C314.83140625 412.82910156 315.5378125 412.34570312 316.265625 411.84765625 C321.1072857 409.24824005 325.77572653 409.51389547 331.125 410.3125 C334.65991749 411.70931315 337.2468861 413.85568167 340.125 416.3125 C340.67559082 416.77946289 341.22618164 417.24642578 341.79345703 417.72753906 C345.0291959 420.48037038 348.23435938 423.26574179 351.421875 426.07421875 C355.3278902 429.50843998 359.34170301 432.79665407 363.3828125 436.0703125 C366.49500148 438.61503683 369.56226497 441.20868225 372.625 443.8125 C377.47527388 447.93430799 382.37683339 451.98525283 387.31640625 456 C389.87382759 458.10569323 392.39628087 460.24502888 394.91162109 462.40039062 C410.87590074 477.08182009 410.87590074 477.08182009 431.125 482.3125 C436.24117177 481.20108746 440.35385782 478.97272624 444.125 475.3125 C446.6674605 471.00918347 446.87345392 467.20036234 446.125 462.3125 C444.8107318 458.74985562 443.07417589 455.56474612 441.125 452.3125 C440.77566406 451.69503906 440.42632813 451.07757812 440.06640625 450.44140625 C436.9543058 445.50536414 432.55804597 442.21744929 428.01953125 438.6328125 C425.29161591 436.44606255 422.70310801 434.17268182 420.125 431.8125 C416.70760628 428.69791332 413.2197765 425.7206338 409.625 422.8125 C405.16223787 419.20217558 400.89780467 415.42822071 396.65625 411.5625 C394.0365519 409.23387947 391.3498469 407.01687053 388.625 404.8125 C384.16079543 401.20100866 379.89497886 397.42589306 375.65234375 393.55859375 C373.05537607 391.25062402 370.39095987 389.05694137 367.6875 386.875 C362.91503797 383.01541397 358.39390891 378.94050009 353.87890625 374.78515625 C350.29292716 371.56540481 346.55798508 368.55344824 342.80859375 365.52734375 C339.31949084 362.64769113 335.99503079 359.60556124 332.65234375 356.55859375 C330.05537607 354.25062402 327.39095987 352.05694137 324.6875 349.875 C319.83827507 345.95172325 315.21732565 341.83046717 310.640625 337.59375 C308.52418402 335.67449296 306.36497603 333.89439283 304.125 332.125 C299.85609536 328.48056343 298.38987282 324.39364357 297.6875 318.875 C298.40143364 313.06154034 300.45298967 308.86508102 304.75 304.875 C309.74915227 301.58608403 314.24279707 301.76283808 320.125 302.3125 C326.23282683 304.7120034 330.4803037 309.23196144 335.23828125 313.671875 C337.9400707 316.14333599 340.70720354 318.45917052 343.5625 320.75 C348.09736161 324.40756264 352.38036183 328.25867027 356.64208984 332.22412109 C360.75279276 336.02648807 365.04775584 339.55520592 369.41015625 343.06640625 C372.23173495 345.4008059 374.93090712 347.83240598 377.625 350.3125 C381.20292463 353.60581699 384.84039666 356.75901321 388.625 359.8125 C392.40960334 362.86598679 396.04707537 366.01918301 399.625 369.3125 C404.0948512 373.42628909 408.71544893 377.28337297 413.44140625 381.09765625 C416.07208557 383.26882827 418.60442424 385.51491357 421.125 387.8125 C424.54239372 390.92708668 428.0302235 393.9043662 431.625 396.8125 C435.2197765 399.7206338 438.70760628 402.69791332 442.125 405.8125 C446.3257949 409.63739959 450.66881469 413.23366145 455.0859375 416.8046875 C458.59559527 419.70083183 462.01485187 422.68966883 465.4375 425.6875 C484.87591058 444.25306834 484.87591058 444.25306834 509.125 452.3125 C516.37481504 450.5815753 520.78183315 445.08194232 524.5625 439 C525.86924341 432.75667039 524.83830066 426.0155693 521.734375 420.4375 C515.85946964 412.68034341 507.35899647 406.61059472 499.83984375 400.55859375 C497.01826505 398.2241941 494.31909288 395.79259402 491.625 393.3125 C487.1551488 389.19871091 482.53455107 385.34162703 477.80859375 381.52734375 C474.31949084 378.64769113 470.99503079 375.60556124 467.65234375 372.55859375 C465.05537607 370.25062402 462.39095987 368.05694137 459.6875 365.875 C454.91503797 362.01541397 450.39390891 357.94050009 445.87890625 353.78515625 C442.29292716 350.56540481 438.55798508 347.55344824 434.80859375 344.52734375 C431.31949084 341.64769113 427.99503079 338.60556124 424.65234375 335.55859375 C422.05537607 333.25062402 419.39095987 331.05694137 416.6875 328.875 C411.91503797 325.01541397 407.39390891 320.94050009 402.87890625 316.78515625 C399.29292716 313.56540481 395.55798508 310.55344824 391.80859375 307.52734375 C388.32721185 304.65406349 385.00869368 301.62137617 381.6796875 298.57421875 C378.94485912 296.15301748 376.11337997 293.89215894 373.25 291.625 C367.70632557 287.08357179 364.26878244 283.62723776 363.1875 276.375 C362.85665035 271.49312965 363.85137952 268.59740013 366.125 264.3125 C366.455 263.3225 366.785 262.3325 367.125 261.3125 C369.5625 260.1875 369.5625 260.1875 372.125 259.3125 C372.785 258.9825 373.445 258.6525 374.125 258.3125 C375.87069287 258.16417315 377.62325237 258.09121717 379.375 258.0625 C380.77492188 258.02382813 380.77492188 258.02382813 382.203125 257.984375 C387.91983534 258.62635851 391.73776312 261.57722296 395.8125 265.4375 C399.32687181 268.69369457 402.89502111 271.80530344 406.625 274.8125 C410.2197765 277.7206338 413.70760628 280.69791332 417.125 283.8125 C420.44489486 286.83532421 423.82264112 289.73762161 427.3125 292.5625 C433.75211993 297.77768515 439.97955403 303.22581752 446.22851562 308.66601562 C449.20355189 311.24887409 452.1944406 313.81306914 455.1875 316.375 C455.76089111 316.86589111 456.33428223 317.35678223 456.92504883 317.86254883 C458.08030518 318.85135203 459.23565976 319.84004049 460.39111328 320.82861328 C463.30394046 323.32145524 466.21434061 325.81712766 469.125 328.3125 C470.29165518 329.3125134 471.45832184 330.31251341 472.625 331.3125 C474.95833333 333.3125 477.29166667 335.3125 479.625 337.3125 C480.20241943 337.80741943 480.77983887 338.30233887 481.37475586 338.81225586 C482.54228228 339.81301606 483.7097627 340.81382992 484.87719727 341.81469727 C487.78033629 344.30350676 490.68424949 346.79140091 493.58984375 349.27734375 C499.64050826 354.45596315 505.67493199 359.65217925 511.6875 364.875 C517.42442423 369.85527683 523.18696395 374.80231641 529.01171875 379.6796875 C531.08836834 381.42197775 533.12660795 383.19791576 535.14453125 385.0078125 C544.41121482 393.14500515 555.39497876 400.04205949 568.125 400.3125 C572.99568708 399.57927829 576.17042225 398.29094219 579.625 394.75 C581.5386659 391.64029291 582.31752258 389.81208105 582.4375 386.1875 C582.49357422 385.10082031 582.49357422 385.10082031 582.55078125 383.9921875 C581.25769833 375.85406928 576.10778027 370.85268393 570.1875 365.5625 C569.43114258 364.86930664 568.67478516 364.17611328 567.89550781 363.46191406 C566.36393142 362.05963918 564.82800794 360.66209624 563.28759766 359.26953125 C560.82355217 357.03970639 558.38493806 354.78386066 555.94946289 352.52294922 C553.86430541 350.58878701 551.77049416 348.66412317 549.67675781 346.73925781 C547.03225432 344.30777914 544.3906591 341.87315266 541.75 339.4375 C540.95396362 338.70333862 540.95396362 338.70333862 540.1418457 337.9543457 C535.93371774 334.06890181 531.7463322 330.16157469 527.5625 326.25 C522.0988848 321.14264702 516.60587409 316.06981385 511.0859375 311.0234375 C507.92244272 308.13043526 504.77324074 305.22208228 501.625 302.3125 C497.46659806 298.4700823 493.30093814 294.63585234 489.125 290.8125 C484.94906148 286.98914732 480.78347228 283.15484195 476.625 279.3125 C470.47351007 273.62920731 464.30221184 267.96780879 458.125 262.3125 C456.14555919 260.50029908 454.16635401 258.68784168 452.1875 256.875 C451.69644775 256.42519775 451.20539551 255.97539551 450.69946289 255.51196289 C447.51406019 252.59196722 444.33776102 249.66232026 441.16552734 246.72802734 C436.02839236 241.97644104 430.86347809 237.26043903 425.65234375 232.58984375 C422.79417758 230.0144019 419.95793383 227.41560304 417.125 224.8125 C411.82380367 219.9430219 406.4830727 215.11925976 401.125 210.3125 C399.45807353 208.81278872 397.79140851 207.31278679 396.125 205.8125 C395.29871094 205.07 394.47242188 204.3275 393.62109375 203.5625 C391.96277017 202.06767311 390.30907559 200.5676942 388.66015625 199.0625 C384.44734692 195.22904317 380.18455031 191.51313454 375.75 187.9375 C371.64170571 184.62060518 367.73555883 181.15864527 363.875 177.5625 C355.68068004 169.9980139 349.75857655 165.97056694 338.5 165 C337.04040414 165.08465656 335.5821274 165.19263952 334.125 165.3125 C332.97515625 165.32667969 331.8253125 165.34085938 330.640625 165.35546875 C323.40312708 165.91487564 323.40312708 165.91487564 317.66162109 169.96337891 C315.27934808 173.59957356 313.45111494 177.47908854 311.578125 181.39453125 C301.01518848 203.47556345 279.12586557 225.46062595 256.1015625 233.84765625 C236.25221223 240.56742676 215.00528322 242.4588098 195.6875 233.0625 C184.82208412 227.26518079 178.38646535 219.20216015 174.703125 207.48828125 C170.05410654 189.99163744 175.06077459 172.55384819 183.89208984 157.27929688 C187.91654842 150.85928929 192.76783622 144.66966378 198.125 139.3125 C198.69090488 137.25832072 198.69090488 137.25832072 199.01953125 134.8671875 C199.24201538 133.51016724 199.24201538 133.51016724 199.46899414 132.12573242 C199.62360107 131.15611572 199.77820801 130.18649902 199.9375 129.1875 C201.57631531 119.54228272 203.93095127 110.55421465 207.125 101.3125 C207.65276927 99.73799128 208.1786686 98.16285476 208.70288086 96.5871582 C208.97007431 95.78437943 209.23726776 94.98160065 209.51255798 94.15449524 C209.71466385 93.54663681 209.91676971 92.93877838 210.125 92.3125 C195.66049529 91.13513207 181.19569153 89.96150065 166.73053741 88.79213715 C160.01357503 88.24907163 153.29671324 87.70481438 146.58007812 87.15771484 C140.09642169 86.62959586 133.61249761 86.10484655 127.12840271 85.58213806 C124.65643799 85.38231158 122.1845638 85.18136199 119.71278381 84.97926331 C116.24690759 84.69607927 112.78072907 84.41691435 109.31445312 84.13867188 C107.78667236 84.0124369 107.78667236 84.0124369 106.22802734 83.88365173 C100.83903578 83.45560295 95.53097075 83.22792862 90.125 83.3125 Z M73.8125 348.625 C73.18021484 349.54990234 72.54792969 350.47480469 71.89648438 351.42773438 C68.58698235 356.41859113 66.16408132 360.24707916 66.125 366.3125 C67.37107336 370.28435884 68.92494692 372.4729389 72.375 374.6875 C76.0699794 376.53887915 78.98397955 376.91483025 83.125 376.3125 C88.78015958 373.29745635 91.76013105 369.17825723 95.3125 363.9375 C95.83263672 363.195 96.35277344 362.4525 96.88867188 361.6875 C103.00815451 353.27112064 103.00815451 353.27112064 104.125 343.3125 C101.84082225 338.99794202 99.68505984 336.17797902 95.125 334.3125 C83.70106034 333.04317337 79.62370423 339.74626209 73.8125 348.625 Z M136.70581055 364.35717773 C132.5981968 369.43793117 129.07165032 374.95829416 125.43945312 380.38232422 C124.28139184 382.08285031 123.07395761 383.74952865 121.859375 385.41015625 C117.93925313 390.94772678 116.19568881 395.01094685 116.703125 401.87109375 C117.81720666 408.31832555 120.86389085 411.5987759 126.125 415.3125 C132.14778783 418.19296374 137.06880025 417.16823593 143.25 415.4375 C146.89897754 412.74042964 148.0740382 409.97397728 150.0859375 405.9609375 C153.67465197 399.20731125 158.46017664 393.10711007 162.8828125 386.88671875 C163.96396887 385.36228205 165.04474044 383.83757233 166.125 382.3125 C166.76937012 381.41144531 166.76937012 381.41144531 167.42675781 380.4921875 C170.19593768 376.51719378 170.79775596 374.18998069 170.125 369.3125 C167.9283169 362.84585987 164.30531526 358.40265763 158.125 355.3125 C148.00877391 354.30418335 143.15236964 356.75326493 136.70581055 364.35717773 Z M203.375 388.5625 C201.68569616 391.17272868 200.37454299 393.8725714 199.0625 396.6875 C196.6243356 401.75733392 193.51538902 406.19185287 190.25 410.75 C189.7250293 411.48718262 189.20005859 412.22436523 188.65917969 412.98388672 C184.72838698 418.49360082 184.72838698 418.49360082 182.87548828 421.00830078 C178.08486856 427.37041668 178.08486856 427.37041668 176.875 435 C178.22472103 441.22433336 181.26553711 445.86211894 186.25 449.75 C191.27376771 452.48030854 195.5111375 452.95043892 201.125 452.3125 C210.96201639 449.35426681 216.01759781 440.26748692 221.4375 432.1875 C222.57632187 430.50226547 223.71564702 428.81737093 224.85546875 427.1328125 C225.40895996 426.31329102 225.96245117 425.49376953 226.53271484 424.64941406 C227.95588071 422.56070759 229.40008113 420.49045615 230.86328125 418.4296875 C231.2708667 417.8536377 231.67845215 417.27758789 232.09838867 416.68408203 C233.16849909 415.17726129 234.24417942 413.67440043 235.3203125 412.171875 C239.25683427 405.93478857 241.09776953 400.60160871 240.125 393.3125 C237.73616484 386.77463534 233.24769655 382.47145648 227.125 379.3125 C217.1193619 377.50980822 209.52950173 380.54068814 203.375 388.5625 Z M266.125 430.3125 C260.77991537 436.00135563 256.4615188 442.55879311 252.22265625 449.08984375 C250.71821003 451.40114381 249.19065805 453.67559163 247.62109375 455.94140625 C246.78873962 457.16905198 245.95670232 458.39691259 245.125 459.625 C244.52764038 460.46853027 244.52764038 460.46853027 243.91821289 461.32910156 C241.17107039 465.45133173 240.60066472 468.41287815 241.125 473.3125 C242.96503757 476.99257515 244.55085301 478.91697652 247.9375 481.25 C251.74437456 482.51895819 254.24448563 482.16621316 258.125 481.3125 C258.29515625 480.57644531 258.4653125 479.84039063 258.640625 479.08203125 C261.21336626 468.72264223 261.21336626 468.72264223 265.125 465.3125 C266.69974159 464.58526587 268.28436914 463.87929045 269.875 463.1875 C276.32072245 460.19790347 279.45689242 455.20858054 283.125 449.3125 C283.68445313 448.45527344 284.24390625 447.59804688 284.8203125 446.71484375 C286.68873516 443.27448466 286.7841916 440.08989005 286.125 436.3125 C283.72009151 431.41018654 281.22438875 429.22477078 276.125 427.3125 C271.47218575 427.3125 270.00691637 427.77432391 266.125 430.3125 Z M321.125 446.3125 C320.74021484 447.69308594 320.74021484 447.69308594 320.34765625 449.1015625 C317.74883543 457.86850023 314.21556375 464.9722434 309.015625 472.484375 C307.01138349 475.21277256 307.01138349 475.21277256 306.125 478.3125 C323.03145822 487.60971237 341.75304465 494.53033318 361.125 489.3125 C363.8581962 488.41878823 366.46594833 487.4162573 369.125 486.3125 C369.125 485.6525 369.125 484.9925 369.125 484.3125 C367.31980816 482.64468098 367.31980816 482.64468098 364.9375 480.875 C360.77250864 477.6277186 356.70407238 474.30183044 352.6875 470.875 C347.7817287 466.70154053 342.83547556 462.58464583 337.8359375 458.5234375 C335.91503461 456.95682218 334.0045735 455.37736367 332.1015625 453.7890625 C331.11929687 452.97179687 330.13703125 452.15453125 329.125 451.3125 C328.238125 450.57 327.35125 449.8275 326.4375 449.0625 C324.16326445 447.14730263 324.16326445 447.14730263 321.125 446.3125 Z " fill="#FFFFFF" transform="translate(183.875,363.6875)"/>
<path d="M0 0 C4.81569627 2.75569862 7.54998484 5.98399912 9.70703125 11.12890625 C10.88243452 15.81503593 11.61843424 20.56545016 12.36425781 25.33496094 C12.60012714 26.77644737 12.8371999 28.21773731 13.07537842 29.65884399 C13.71606655 33.55786907 14.33930434 37.45949795 14.95890522 41.36192226 C15.61184295 45.45817648 16.27931748 49.55206406 16.94476318 53.64630127 C18.06039493 60.52439155 19.16499074 67.4041835 20.26269531 74.28515625 C21.52843916 82.21881859 22.81004832 90.14978828 24.10060525 98.07944942 C25.34547247 105.7299389 26.58040669 113.38199801 27.81041718 121.03488922 C28.33218674 124.28069055 28.85710837 127.52595813 29.38459015 130.77083588 C30.00666153 134.60108252 30.61988186 138.43264947 31.22657013 142.26536179 C31.449348 143.66415057 31.67498944 145.06248708 31.90385437 146.46029282 C35.37323977 167.68542307 35.37323977 167.68542307 31.64453125 174.56640625 C28.93196363 178.25640745 26.12616957 180.7724526 21.70703125 182.12890625 C15.76302952 182.94974458 10.72302239 182.66290001 5.70703125 179.12890625 C0.50416976 174.29259634 -1.33943826 170.01036301 -2.35644531 163.07714844 C-2.50858616 162.17434521 -2.66072701 161.27154198 -2.81747818 160.34138107 C-3.15072357 158.34589202 -3.47317856 156.34857898 -3.78633118 154.34983826 C-4.31423828 150.9936859 -4.87484785 147.64424521 -5.44226074 144.29455566 C-6.63542588 137.21585812 -7.79159465 130.13144209 -8.93905544 123.04523563 C-9.28153663 120.93114918 -9.62479721 118.81719067 -9.96829987 116.70326996 C-11.17092776 109.30170254 -12.3703473 101.89962307 -13.56689453 94.49707031 C-14.67644365 87.63334242 -15.79356643 80.77087495 -16.9140203 73.90891957 C-17.88304947 67.97206404 -18.84659134 62.03433437 -19.80595803 56.09590983 C-20.37599391 52.56807553 -20.94821691 49.04063185 -21.52611542 45.51407623 C-22.16824486 41.59430949 -22.79896545 37.67275289 -23.42871094 33.75097656 C-23.61879227 32.60072998 -23.8088736 31.4504834 -24.00471497 30.26538086 C-26.79982078 12.67111081 -26.79982078 12.67111081 -22.29296875 6.12890625 C-16.00941246 -0.19921427 -8.87866612 -3.3729856 0 0 Z " fill="#FFFFFF" transform="translate(447.29296875,135.87109375)"/>
<path d="M0 0 C4.61288933 2.63964586 8.20201547 5.88963242 9.70703125 11.12890625 C10.44615746 19.97332022 9.16342261 28.73660932 7.91870117 37.4753418 C7.72585067 38.87126498 7.53369687 40.26728456 7.34217834 41.66339111 C6.82485333 45.4183924 6.29727923 49.17188394 5.7672441 52.92510962 C5.32406337 56.07079534 4.88621169 59.21721335 4.44838315 62.36364776 C3.41516571 69.78879149 2.37381467 77.2127617 1.3269043 84.63598633 C0.2500253 92.27249135 -0.81471401 99.91061702 -1.87323838 107.54968613 C-2.78587757 114.13349161 -3.70521095 120.71633756 -4.63004416 127.29844123 C-5.18087572 131.21884388 -5.72942366 135.13952805 -6.27186012 139.06110191 C-6.78204763 142.74686992 -7.30067092 146.43135722 -7.82561684 150.11505127 C-8.10623139 152.09839472 -8.37851519 154.08291137 -8.65048218 156.06745911 C-11.30049981 174.48546477 -11.30049981 174.48546477 -16.79296875 178.62890625 C-17.38078125 179.09296875 -17.96859375 179.55703125 -18.57421875 180.03515625 C-23.08807119 182.9076078 -28.14395792 182.56335404 -33.29296875 182.12890625 C-38.96755853 180.20168708 -42.61347746 176.48788883 -45.29296875 171.12890625 C-45.83529552 161.1190442 -44.93657952 151.42512528 -43.50463867 141.51782227 C-43.3116097 140.12971148 -43.11946281 138.7414778 -42.92811584 137.35313416 C-42.41268378 133.63320836 -41.8844687 129.91520887 -41.3531816 126.19751859 C-40.79564526 122.28377833 -40.24854366 118.36857654 -39.69978333 114.45359802 C-38.77815444 107.89061748 -37.84803603 101.32888261 -36.9128418 94.76782227 C-35.83429363 87.20020612 -34.76983632 79.63070696 -33.71269912 72.06007248 C-32.69065284 64.74341097 -31.65821914 57.42825022 -30.62124062 50.11369133 C-30.1820528 47.01429984 -29.74654506 43.91442492 -29.31407738 40.81408882 C-28.80452 37.16429242 -28.285859 33.5159004 -27.76032066 29.86837196 C-27.47928989 27.90282266 -27.20720972 25.93600003 -26.93545532 23.96914673 C-24.47824889 7.09251127 -24.47824889 7.09251127 -18.79296875 2.69140625 C-18.20515625 2.21832031 -17.61734375 1.74523437 -17.01171875 1.2578125 C-12.1305583 -1.94822243 -5.36149092 -2.03681852 0 0 Z " fill="#FFFFFF" transform="translate(602.29296875,135.87109375)"/>
<path d="M0 0 C3.77702297 2.63513231 6.60374735 5.7074947 8.6875 9.875 C8.86296191 11.74467612 8.95484858 13.62265159 9 15.5 C9.05607422 17.00433594 9.05607422 17.00433594 9.11328125 18.5390625 C8.20302566 25.67078975 3.71509782 31.6169794 -0.1875 37.5 C-1.16881282 38.99814538 -2.14923763 40.49687268 -3.12890625 41.99609375 C-3.64598145 42.78612793 -4.16305664 43.57616211 -4.69580078 44.39013672 C-7.53874919 48.75974241 -10.33060945 53.16174388 -13.125 57.5625 C-13.7132959 58.48820801 -14.3015918 59.41391602 -14.90771484 60.36767578 C-16.11007114 62.25979632 -17.31221862 64.15204956 -18.51416016 66.04443359 C-22.02031395 71.56307968 -25.53102126 77.07883437 -29.04418945 82.59301758 C-32.07070195 87.34483362 -35.08859711 92.10182956 -38.09375 96.8671875 C-39.02767578 98.34445312 -39.02767578 98.34445312 -39.98046875 99.8515625 C-41.16287842 101.72224049 -42.34275409 103.59452368 -43.51953125 105.46875 C-54.47209074 122.7732712 -54.47209074 122.7732712 -61.3125 124.875 C-66.86665398 125.74803318 -71.7558311 125.62365639 -76.75 122.875 C-81.42810263 119.45527816 -83.73359612 115.32430228 -84.6875 109.640625 C-85.16117661 101.05523653 -80.14634972 94.34808537 -75.5625 87.4375 C-74.58128199 85.93929253 -73.6008629 84.44056162 -72.62109375 82.94140625 C-72.09112793 82.13203613 -71.56116211 81.32266602 -71.01513672 80.48876953 C-67.85467579 75.63704962 -64.74260671 70.75432114 -61.625 65.875 C-60.94735596 64.81563232 -60.26971191 63.75626465 -59.5715332 62.66479492 C-56.13098122 57.28602896 -52.693307 51.90543493 -49.2578125 46.5234375 C-45.9494348 41.34161204 -42.63111506 36.16624341 -39.30908203 30.99316406 C-37.25819662 27.79019163 -35.22085117 24.57884124 -33.18359375 21.3671875 C-31.85204349 19.2861505 -30.52002964 17.20541003 -29.1875 15.125 C-28.28245728 13.68713135 -28.28245728 13.68713135 -27.35913086 12.22021484 C-20.61752633 1.75301163 -12.89059691 -4.37793857 0 0 Z " fill="#FFFFFF" transform="translate(744.3125,210.125)"/>
<path d="M0 0 C8.45421808 6.38763144 13.85852924 16.54549266 19.6171875 25.29296875 C22.73401317 30.02349041 25.91862324 34.7048532 29.125 39.375 C29.65665771 40.15053223 30.18831543 40.92606445 30.73608398 41.72509766 C33.05731004 45.11052083 35.38009239 48.49487567 37.70263672 51.87939453 C41.52790241 57.45778725 45.33743595 63.0463563 49.12792969 68.6484375 C50.64614552 70.8804348 52.18337272 73.0977469 53.7265625 75.3125 C58.4763019 82.23197385 61.9988628 87.70677725 60.421875 96.23828125 C58.80106478 101.75526989 55.44849288 104.89656158 50.8125 108.125 C46.85928949 110.10160525 42.12133775 109.55282786 37.8125 109.125 C30.67294789 105.75728674 26.41353014 99.12324221 22.17578125 92.69921875 C18.17661665 86.66576005 14.1273935 80.66749759 10.0592041 74.6803894 C8.83804141 72.88310504 7.61768754 71.08527352 6.39746094 69.28735352 C2.28624837 63.23108477 -1.8310234 57.1790111 -5.95703125 51.1328125 C-6.71952086 50.01459326 -7.48197269 48.89634827 -8.24438477 47.77807617 C-9.65875337 45.70430918 -11.07450341 43.63148337 -12.49194336 41.55981445 C-15.73635403 36.80164166 -18.94974755 32.0231936 -22.1015625 27.203125 C-22.6682666 26.33977539 -23.2349707 25.47642578 -23.81884766 24.58691406 C-26.33351121 20.06356991 -26.74249536 15.99334052 -25.76953125 10.96484375 C-24.16357732 5.7576598 -21.63420262 3.18210805 -17.1875 0.125 C-11.64233948 -1.72338684 -5.61221219 -1.54060727 0 0 Z " fill="#FFFFFF" transform="translate(310.1875,225.875)"/>
</svg>
